<svg width="131" height="34" viewBox="0 0 131 34" fill="none" xmlns="http://www.w3.org/2000/svg">
<path d="M40.7098 33.4355V22.5435H40.792C41.9839 24.5164 44.039 25.8316 47.1217 25.8316C52.0951 25.8316 56.2464 22.2146 56.2464 15.7205C56.2464 9.22636 52.0951 5.60938 47.1217 5.60938C44.039 5.60938 41.9839 6.92464 40.792 8.89755H40.7098V6.22591H35.6953V33.4355H40.7098ZM45.8475 21.0638C42.806 21.0638 40.7098 18.9265 40.7098 15.7205C40.7098 12.5145 42.806 10.3772 45.8475 10.3772C48.8891 10.3772 50.9853 12.5145 50.9853 15.7205C50.9853 18.9265 48.8891 21.0638 45.8475 21.0638Z" fill="#042932"/>
<path d="M119.437 25.8316C122.52 25.8316 124.575 24.5164 125.767 22.5435H125.849V25.2151H130.864V6.22591H125.849V8.89755H125.767C124.575 6.92464 122.52 5.60938 119.437 5.60938C114.464 5.60938 110.312 9.22636 110.312 15.7205C110.312 22.2146 114.464 25.8316 119.437 25.8316ZM120.711 21.0638C117.67 21.0638 115.574 18.9265 115.574 15.7205C115.574 12.5145 117.67 10.3772 120.711 10.3772C123.753 10.3772 125.849 12.5145 125.849 15.7205C125.849 18.9265 123.753 21.0638 120.711 21.0638Z" fill="#042932"/>
<path d="M101.427 18.7041L97.2758 6.16797H92.508L88.3567 18.6219L84.6986 6.16797H79.4375L86.0549 25.1572H90.5351L94.8919 12.7443L99.2487 25.1572H103.729L110.346 6.16797H105.085L101.427 18.7041Z" fill="#042932"/>
<path d="M66.6559 25.8316C69.7386 25.8316 71.7937 24.5164 72.9856 22.5435H73.0679V25.2151H78.0823V6.22591H73.0679V8.89755H72.9856C71.7937 6.92464 69.7386 5.60938 66.6559 5.60938C61.6826 5.60938 57.5312 9.22636 57.5312 15.7205C57.5312 22.2146 61.6826 25.8316 66.6559 25.8316ZM67.9301 21.0638C64.8885 21.0638 62.7923 18.9265 62.7923 15.7205C62.7923 12.5145 64.8885 10.3772 67.9301 10.3772C70.9716 10.3772 73.0679 12.5145 73.0679 15.7205C73.0679 18.9265 70.9716 21.0638 67.9301 21.0638Z" fill="#042932"/>
<path d="M15.7786 13.3047L26.1816 13.3047L17.9656 30.6639L7.5625 30.6639L15.7786 13.3047Z" fill="#98AD17"/>
<path d="M8.21608 0.566406L18.6191 0.566406L10.4031 17.9256L-9.84977e-08 17.9256L8.21608 0.566406Z" fill="#98AD17"/>
</svg>
